<?xml version="1.0" encoding="utf-8"?>
<!-- Generator: Adobe Illustrator 21.0.0, SVG Export Plug-In . SVG Version: 6.00 Build 0)  -->
<svg version="1.1" id="Capa_1" xmlns="http://www.w3.org/2000/svg" xmlns:xlink="http://www.w3.org/1999/xlink" x="0px" y="0px"
	 viewBox="0 0 12 12" style="enable-background:new 0 0 12 12;" xml:space="preserve">
<g>
	<path fill="#ffffff" d="M11.4,0.6c-0.8-0.8-2-0.8-2.8,0L6,3.2L3.4,0.6c-0.8-0.8-2-0.8-2.8,0c-0.8,0.8-0.8,2,0,2.8L3.2,6L0.6,8.6
		c-0.8,0.8-0.8,2,0,2.8C1,11.8,1.5,12,2,12s1-0.2,1.4-0.6L6,8.8l2.6,2.6C9,11.8,9.5,12,10,12s1-0.2,1.4-0.6c0.8-0.8,0.8-2,0-2.8
		L8.8,6l2.6-2.6C12.2,2.6,12.2,1.4,11.4,0.6z"/>
</g>
</svg>
