<?xml version="1.0" encoding="utf-8"?>
<!-- Generator: Adobe Illustrator 20.1.0, SVG Export Plug-In . SVG Version: 6.00 Build 0)  -->
<svg version="1.1" id="Calque_1" xmlns="http://www.w3.org/2000/svg" xmlns:xlink="http://www.w3.org/1999/xlink" x="0px" y="0px"
	 viewBox="0 0 121 24" style="enable-background:new 0 0 121 24;" xml:space="preserve">
<style type="text/css">
	.st0{fill:#FFFFFF;}
	.st1{fill:#DBA70D;}
</style>
<g id="Calque_2">
	<g>
		<path class="st0" d="M5.2,8.3v4c-0.1,0-0.3,0.1-0.6,0.1c-0.3,0-0.6,0.1-0.9,0.1s-0.5,0-0.7-0.1c-0.2,0-0.4-0.1-0.5-0.2
			c-0.1-0.1-0.3-0.3-0.3-0.5C2,11.5,2,11.3,2,11V1.3c0.1,0,0.3-0.1,0.6-0.1s0.6-0.1,0.8-0.1c0.3,0,0.5,0,0.7,0.1
			c0.2,0,0.4,0.1,0.5,0.2C4.9,1.6,5,1.7,5.1,1.9s0.1,0.5,0.1,0.8v2.9L9,1.2c0.8,0,1.4,0.2,1.8,0.5s0.5,0.7,0.5,1.1
			c0,0.3-0.1,0.6-0.2,0.9c-0.2,0.3-0.4,0.6-0.8,0.9L8,6.9C8.3,7.3,8.6,7.6,9,8c0.3,0.4,0.7,0.7,1,1s0.6,0.7,0.9,1
			c0.3,0.3,0.6,0.6,0.8,0.9c0,0.3,0,0.5-0.1,0.7s-0.2,0.4-0.4,0.5s-0.3,0.3-0.6,0.3s-0.4,0.1-0.7,0.1c-0.5,0-0.9-0.1-1.2-0.4
			c-0.3-0.2-0.6-0.5-0.9-0.9L5.2,8.3z"/>
		<path class="st0" d="M15.8,1.7c0.2-0.1,0.5-0.2,0.9-0.3c0.4-0.1,0.8-0.2,1.3-0.2c0.6,0,1.1,0.1,1.6,0.3s0.8,0.5,0.9,0.8
			c0.2,0.6,0.5,1.4,0.7,2.2c0.3,0.8,0.5,1.7,0.8,2.6s0.5,1.8,0.7,2.6c0.2,0.9,0.5,1.6,0.6,2.3c-0.1,0.2-0.4,0.3-0.7,0.4
			c-0.3,0.1-0.6,0.2-1,0.2c-0.3,0-0.5,0-0.7-0.1c-0.2,0-0.4-0.1-0.5-0.2c-0.1-0.1-0.2-0.2-0.3-0.4c-0.1-0.2-0.1-0.3-0.2-0.5
			l-0.3-1.3h-3.3c-0.1,0.4-0.2,0.7-0.3,1.1c-0.1,0.4-0.2,0.8-0.3,1.1c-0.2,0.1-0.3,0.1-0.5,0.2c-0.2,0-0.4,0.1-0.7,0.1
			c-0.6,0-1.1-0.1-1.4-0.3c-0.3-0.2-0.4-0.5-0.4-0.9c0-0.2,0-0.3,0.1-0.5c0-0.2,0.1-0.4,0.2-0.6c0-0.4,0.1-0.8,0.3-1.3
			s0.3-1,0.5-1.6s0.4-1.1,0.6-1.7C14.6,5.1,14.8,4.5,15,4c0.2-0.5,0.3-1,0.5-1.4C15.6,2.2,15.7,1.9,15.8,1.7z M18,4
			c-0.2,0.5-0.4,1.1-0.6,1.7C17.2,6.4,17,7,16.8,7.6h2.3c-0.2-0.7-0.3-1.3-0.5-1.9S18.3,4.5,18,4C18.1,4,18,4,18,4z"/>
		<path class="st0" d="M32.5,9.7c-0.2,0.1-0.4,0.2-0.6,0.3c-0.2,0.1-0.5,0.1-0.9,0.1s-0.8-0.1-1.1-0.2c-0.3-0.1-0.5-0.3-0.6-0.6
			c-0.3-1.1-0.6-1.9-0.8-2.6C28.3,6.1,28.2,5.5,28,5l0,0c0,0.7-0.1,1.4-0.1,2s0,1.2,0,1.7c0,0.6,0,1.1,0,1.7c0,0.6,0,1.2-0.1,1.9
			c-0.2,0.1-0.4,0.1-0.6,0.2c-0.3,0-0.5,0.1-0.8,0.1c-0.5,0-1-0.1-1.2-0.3c-0.3-0.2-0.4-0.5-0.4-0.9l0.5-9.3
			c0.1-0.2,0.3-0.3,0.6-0.5c0.3-0.2,0.8-0.3,1.4-0.3s1.1,0.1,1.5,0.3s0.6,0.5,0.8,1c0.1,0.3,0.2,0.6,0.4,1s0.3,0.8,0.4,1.2
			c0.1,0.4,0.3,0.8,0.4,1.2c0.1,0.4,0.2,0.8,0.3,1.1H31c0.3-1,0.6-2,0.9-3c0.3-1,0.6-1.8,0.8-2.4c0.2-0.1,0.4-0.2,0.7-0.2
			c0.3-0.1,0.6-0.1,1-0.1c0.6,0,1.1,0.1,1.5,0.3s0.6,0.4,0.7,0.8c0,0.2,0.1,0.6,0.2,1.1c0.1,0.5,0.1,1.1,0.2,1.7
			c0.1,0.6,0.1,1.3,0.2,2c0.1,0.7,0.1,1.4,0.2,2c0.1,0.7,0.1,1.2,0.1,1.8c0,0.5,0.1,1,0.1,1.2c-0.2,0.1-0.4,0.2-0.6,0.3
			c-0.2,0.1-0.5,0.1-0.9,0.1c-0.5,0-0.9-0.1-1.2-0.2c-0.3-0.2-0.5-0.5-0.5-0.9c-0.1-1.3-0.1-2.5-0.1-3.6s0-1.9-0.1-2.7h-0.1
			c-0.1,0.5-0.3,1.1-0.5,1.8C33.1,7.6,32.8,8.6,32.5,9.7z"/>
		<path class="st0" d="M42.6,12.3c-0.1,0-0.3,0.1-0.6,0.1s-0.6,0.1-0.8,0.1c-0.3,0-0.5,0-0.7-0.1c-0.2,0-0.4-0.1-0.5-0.2
			c-0.1-0.1-0.3-0.3-0.3-0.5c-0.1-0.2-0.1-0.4-0.1-0.8V2.4c0-0.3,0.1-0.5,0.2-0.6c0.1-0.1,0.3-0.3,0.6-0.3c0.4-0.1,0.9-0.3,1.4-0.3
			C42.1,1.1,42.7,1,43.2,1c1.7,0,3,0.4,3.8,1.1c0.9,0.7,1.3,1.7,1.3,2.9c0,0.6-0.1,1.1-0.3,1.6s-0.5,0.9-0.8,1.2s-0.8,0.6-1.4,0.8
			c-0.6,0.2-1.2,0.3-2,0.3h-1.3L42.6,12.3L42.6,12.3z M43.5,6.5c0.5,0,0.9-0.1,1.2-0.4C45,5.9,45.1,5.5,45.1,5S45,4.2,44.7,3.9
			c-0.3-0.2-0.7-0.4-1.2-0.4c-0.2,0-0.4,0-0.5,0s-0.3,0-0.4,0v2.8h0.9V6.5z"/>
		<path class="st0" d="M51.8,1.7c0.2-0.1,0.5-0.2,0.9-0.3c0.4-0.1,0.8-0.2,1.3-0.2c0.6,0,1.1,0.1,1.6,0.3s0.8,0.5,0.9,0.8
			c0.2,0.6,0.5,1.4,0.7,2.2c0.3,0.8,0.5,1.7,0.8,2.6s0.5,1.8,0.7,2.6c0.2,0.9,0.5,1.6,0.6,2.3c-0.1,0.2-0.4,0.3-0.7,0.4
			c-0.3,0.1-0.6,0.2-1,0.2c-0.3,0-0.5,0-0.7-0.1c-0.2,0-0.4-0.1-0.5-0.2c-0.1-0.1-0.2-0.2-0.3-0.4s-0.1-0.3-0.2-0.5l-0.3-1.3h-3.3
			c-0.1,0.4-0.2,0.7-0.3,1.1c-0.1,0.4-0.2,0.8-0.3,1.1c-0.2,0.1-0.3,0.1-0.5,0.2c-0.2,0-0.4,0.1-0.7,0.1c-0.6,0-1.1-0.1-1.4-0.3
			c-0.3-0.2-0.4-0.5-0.4-0.9c0-0.2,0-0.3,0.1-0.5c0-0.2,0.1-0.4,0.2-0.6c0-0.4,0.1-0.8,0.3-1.3s0.3-1,0.5-1.6s0.4-1.1,0.6-1.7
			C50.6,5.1,50.8,4.5,51,4c0.2-0.5,0.3-1,0.5-1.4C51.6,2.2,51.7,1.9,51.8,1.7z M54,4c-0.2,0.5-0.4,1.1-0.6,1.7
			C53.2,6.4,53,7,52.8,7.6h2.3c-0.2-0.7-0.3-1.3-0.5-1.9S54.3,4.5,54,4C54.1,4,54,4,54,4z"/>
		<path class="st0" d="M65.1,12.7c-0.2,0-0.4,0-0.7,0c-0.3,0-0.5,0-0.8-0.1c-0.3,0-0.6-0.1-0.9-0.1c-0.3-0.1-0.5-0.1-0.8-0.2
			c-0.7-0.3-1-0.7-1-1.3V2.4c0-0.3,0.1-0.5,0.2-0.6c0.1-0.1,0.3-0.3,0.6-0.3c0.5-0.2,1.1-0.3,1.7-0.3c0.5-0.1,1-0.2,1.5-0.2
			c0.9,0,1.8,0.1,2.6,0.3c0.8,0.2,1.4,0.6,2,1.1s1,1.1,1.3,1.8s0.5,1.6,0.5,2.6s-0.1,1.8-0.4,2.5s-0.7,1.3-1.2,1.8s-1.2,0.9-1.9,1.1
			C66.8,12.6,66,12.7,65.1,12.7z M64.1,10c0.1,0,0.3,0,0.5,0.1c0.2,0,0.4,0,0.5,0c0.4,0,0.8-0.1,1.1-0.2c0.3-0.1,0.6-0.3,0.9-0.6
			c0.2-0.3,0.4-0.6,0.6-1c0.1-0.4,0.2-0.9,0.2-1.5c0-1.1-0.3-1.9-0.8-2.5s-1.2-0.8-2-0.8c-0.2,0-0.3,0-0.5,0s-0.4,0-0.5,0.1
			C64.1,3.6,64.1,10,64.1,10z"/>
		<path class="st0" d="M73,3c0-0.5,0.2-0.9,0.5-1.2s0.7-0.5,1.2-0.5h6c0.1,0.1,0.2,0.3,0.2,0.5S81,2.2,81,2.5c0,0.5-0.1,0.8-0.3,1
			S80.3,3.8,80,3.8h-3.8v1.7h4.1c0.1,0.1,0.2,0.3,0.2,0.5s0.1,0.4,0.1,0.7c0,0.5-0.1,0.8-0.3,1C80.1,7.9,79.8,8,79.5,8h-3.4v1.9h4.7
			c0.1,0.1,0.2,0.3,0.2,0.5c0.1,0.2,0.1,0.4,0.1,0.7c0,0.5-0.1,0.8-0.3,1c-0.2,0.2-0.5,0.3-0.8,0.3h-5.3c-0.5,0-0.9-0.2-1.2-0.5
			c-0.3-0.3-0.5-0.7-0.5-1.2L73,3L73,3z"/>
		<path class="st0" d="M85.1,1.3c0.1,0,0.3-0.1,0.6-0.1c0.3,0,0.6-0.1,0.8-0.1c0.3,0,0.5,0,0.7,0.1c0.2,0,0.4,0.1,0.5,0.2
			S88,1.7,88,1.9c0.1,0.2,0.1,0.5,0.1,0.8v6.7c0,1.1-0.3,1.9-0.9,2.4s-1.5,0.8-2.7,0.8c-0.6,0-1.1-0.1-1.5-0.3
			c-0.3-0.1-0.5-0.3-0.6-0.5s-0.2-0.5-0.2-0.8c0-0.2,0-0.5,0.1-0.6c0.1-0.2,0.1-0.3,0.2-0.4c0.2,0,0.4,0.1,0.6,0.1s0.3,0,0.5,0
			c0.5,0,0.8-0.1,1-0.4c0.2-0.2,0.3-0.6,0.3-1V1.3H85.1z"/>
		<path class="st1" d="M90.1,6.9c0-0.9,0.1-1.8,0.4-2.5s0.7-1.3,1.2-1.8s1.1-0.9,1.8-1.1S95,1,95.8,1s1.6,0.1,2.3,0.4
			c0.7,0.3,1.3,0.6,1.8,1.1s0.9,1.1,1.2,1.8c0.3,0.7,0.4,1.6,0.4,2.5s-0.1,1.8-0.4,2.5s-0.7,1.3-1.2,1.8s-1.1,0.9-1.8,1.1
			c-0.7,0.3-1.5,0.4-2.3,0.4s-1.6-0.1-2.3-0.4c-0.7-0.3-1.3-0.6-1.8-1.1s-0.9-1.1-1.2-1.8C90.2,8.6,90.1,7.8,90.1,6.9z M93.4,6.9
			c0,1.1,0.2,1.9,0.7,2.5c0.4,0.5,1.1,0.8,1.8,0.8c0.8,0,1.4-0.3,1.8-0.8s0.7-1.4,0.7-2.5S98.2,5,97.7,4.4c-0.4-0.5-1-0.8-1.8-0.8
			s-1.4,0.3-1.8,0.8C93.6,4.9,93.4,5.7,93.4,6.9z"/>
	</g>
</g>
<g id="Calque_1_1_" class="st1">
	<path class="st1" d="M113.1,10.7c-4.6,0-6.9,6.6-10.3,6.6s-3.4-2.2-8-2.2c-2.7,0-4.5,2.7-5.6,4.9H1v3h87h3h29
		C120,23,117.7,10.7,113.1,10.7z"/>
</g>
</svg>
